<svg width="20" height="20" viewBox="0 0 20 20" fill="none" xmlns="http://www.w3.org/2000/svg">
<g id="apply">
<g id="del">
<path id="Ellipse 86" d="M10 17.5C11.7352 17.5 13.4166 16.8984 14.7579 15.7976C16.0992 14.6968 17.0174 13.165 17.3559 11.4632C17.6944 9.76135 17.4324 7.9948 16.6144 6.46453C15.7965 4.93425 14.4732 3.73492 12.8701 3.0709C11.267 2.40689 9.48332 2.31926 7.82287 2.82295C6.16242 3.32664 4.72799 4.39049 3.76398 5.83322C2.79997 7.27596 2.36604 9.00832 2.53611 10.7351C2.70619 12.4619 3.46975 14.0764 4.6967 15.3033" stroke="white" stroke-width="1.2" stroke-linecap="round"/>
</g>
<path id="Vector 113" d="M14 7L10.402 11.3175C9.74647 12.1042 9.41869 12.4976 8.97812 12.5176C8.53755 12.5375 8.17549 12.1755 7.45139 11.4514L6 10" stroke="white" stroke-linecap="round"/>
</g>
</svg>
